<svg width="282" height="299" viewBox="0 0 282 299" fill="none" xmlns="http://www.w3.org/2000/svg">
    <path d="M36.7283 292.011C37.9252 294.269 39.6966 296.171 41.8636 297.525C44.0305 298.88 46.5164 299.638 49.0704 299.725H100.486L100.669 299.358C99.4179 297.624 98.4772 295.686 97.8889 293.63C96.0559 287.001 86.9368 253.595 87.7922 242.536L88.113 232.745C88.006 231.859 87.8991 231.126 87.838 230.53L87.5936 230.087C74.2711 219.095 64.4275 204.47 59.2587 187.989C59.2133 187.819 59.2323 187.637 59.3121 187.48C59.3918 187.323 59.5268 187.2 59.6911 187.136C59.8555 187.072 60.0378 187.07 60.2031 187.132C60.3685 187.193 60.5054 187.314 60.5876 187.47C68.1334 202.867 81.6517 213.621 87.7616 218.172C87.8571 218.249 87.9715 218.298 88.0926 218.314C88.2137 218.33 88.3369 218.313 88.449 218.264C88.5757 218.21 88.6845 218.121 88.7628 218.007C88.8412 217.894 88.8859 217.76 88.892 217.623L95.5213 125.515C95.6278 121.662 96.371 117.853 97.7209 114.242C97.8889 113.769 98.0875 113.326 98.2708 112.852L113.546 74.9551C113.454 76.4826 104.839 101.686 100.929 114.074C100.151 116.268 99.5282 118.514 99.0651 120.795L95.8421 243.116C94.895 253.274 105.725 292.103 105.725 292.103C107.924 299.389 113.576 299.817 118.51 299.817H168.214C171.269 299.817 173.927 299.374 174.431 295.586C175.455 287.948 172.14 270.29 172.14 270.29C171.809 268.545 171.029 266.916 169.877 265.564C168.726 264.211 167.242 263.182 165.572 262.577C165.45 262.577 162.028 261.568 162.028 258.513C162.047 257.775 162.213 257.048 162.517 256.375L203.041 170.362C208.082 160.525 208.8 132.251 208.723 115.082C208.711 114.892 208.775 114.704 208.901 114.561C209.027 114.418 209.205 114.331 209.396 114.318C209.586 114.306 209.773 114.37 209.917 114.496C210.06 114.622 210.147 114.8 210.159 114.991C211.167 124.461 212.298 137.277 212.359 148.137C212.45 156.737 211.84 164.115 210.007 167.719L171.315 252.129C170.414 254.068 169.788 255.932 171.04 257.689C173.377 261.049 176.127 261.446 177.456 265.601C177.456 265.601 177.99 268.182 178.006 268.259L179.35 276.003C179.35 276.003 181.504 291.828 180.511 297.021C180.402 297.566 180.19 298.085 179.884 298.549C179.671 298.977 179.441 299.389 179.197 299.771C179.848 299.923 180.514 300 181.183 300H219.553C219.681 299.998 219.805 299.962 219.914 299.896C220.023 299.83 220.112 299.736 220.172 299.624C220.233 299.512 220.263 299.386 220.259 299.259C220.255 299.132 220.217 299.008 220.149 298.9C219.118 297.148 218.458 295.202 218.211 293.184C217.964 291.166 218.135 289.118 218.713 287.169L222.12 264.715C222.649 262.734 222.386 260.624 221.386 258.834C221.386 258.834 213.963 247.989 213.749 247.516L212.848 245.896C207.731 246.477 197.252 243.116 190.821 240.795C190.617 240.742 190.439 240.614 190.325 240.436C190.211 240.258 190.167 240.044 190.204 239.836C190.241 239.627 190.354 239.441 190.523 239.313C190.691 239.185 190.901 239.125 191.112 239.145C198.886 239.237 209.35 238.152 209.35 238.152L210.266 237.953C210.156 236.504 210.269 235.046 210.602 233.631L218.24 198.239C218.603 196.551 219.374 194.977 220.485 193.656L230.093 182.261L222.837 194.878C222.275 195.874 221.907 196.968 221.753 198.101L217.949 234.562C217.583 238.641 218.545 243.819 220.47 246.492L227.741 256.589C228.71 257.933 229.359 259.481 229.64 261.114C229.921 262.747 229.825 264.423 229.36 266.013L225.953 288.452C225.579 289.737 225.508 291.091 225.748 292.408C225.987 293.725 226.53 294.967 227.334 296.038C228.137 297.108 229.179 297.976 230.376 298.574C231.574 299.172 232.894 299.482 234.232 299.481H277.537C280.023 299.48 282.443 298.673 284.432 297.18C286.42 295.687 287.871 293.589 288.565 291.202L296.417 269.924C298.677 263.814 299.227 250.769 293.362 238.748C293.362 238.748 286.534 224.695 287.572 219.119C288.565 213.789 298.265 207.679 297.577 187.638C296.325 154.033 279.416 137.918 279.416 137.918C270.327 130.953 261.254 130.021 247.644 127.699C243.082 127.141 238.492 126.835 233.896 126.783C233.728 126.784 233.565 126.844 233.437 126.953C233.309 127.062 233.222 127.213 233.194 127.379L231.208 139.247C231.174 139.408 231.086 139.553 230.958 139.657C230.83 139.761 230.67 139.818 230.505 139.818C230.341 139.818 230.181 139.761 230.053 139.657C229.925 139.553 229.837 139.408 229.803 139.247L223.51 100.067C222.119 93.5446 222.853 80.3777 213.336 63.7739C209.365 56.8085 196.305 37.272 188.744 34.5683C176.524 30.1844 139.284 28.1681 134.106 28.8402C134.007 28.8499 133.908 28.84 133.814 28.8111C133.72 28.7823 133.632 28.7351 133.556 28.6722L106.107 5.79043C103.876 3.41734 101.056 1.67802 97.9347 0.749714C94.2591 -0.277108 90.3686 -0.248636 86.7084 0.831874C83.0482 1.91238 79.766 4.0013 77.2372 6.85967L50.8423 31.4828C50.6635 31.6553 50.5401 31.877 50.4877 32.1198C50.4353 32.3626 50.4562 32.6156 50.5479 32.8464C50.6396 33.0773 50.7979 33.2757 51.0026 33.4164C51.2073 33.557 51.4493 33.6337 51.6976 33.6365C53.3023 33.5404 54.9075 33.8175 56.387 34.4461C64.5133 38.5245 66.9267 36.218 73.113 35.775C75.0301 35.5686 76.9689 35.7995 78.7839 36.4503C80.5988 37.1012 82.2426 38.155 83.5916 39.5326C85.013 41.0275 85.8745 42.9674 86.0304 45.0243C86.1862 47.0812 85.6269 49.1288 84.447 50.8208C83.6527 43.2903 80.7505 41.1823 74.3961 40.4491C65.3992 39.3952 64.5744 45.4135 55.7913 40.9379C50.9033 38.4634 44.6101 40.7241 42.0439 42.0835L41.8606 42.2363C34.4676 51.9664 41.2191 60.5662 42.8077 62.3228C42.8963 62.4267 42.9534 62.5538 42.9724 62.6891C42.9913 62.8244 42.9713 62.9622 42.9146 63.0865L38.7904 71.9154C38.7904 71.9154 38.7904 71.9154 38.7904 72.0071C37.4588 75.7803 36.7771 79.7521 36.7741 83.7534V86.732C36.789 92.2044 38.4204 97.5503 41.4635 102.099L41.6315 102.297L47.7415 107.704L57.5174 117.587C57.6363 117.709 57.7102 117.868 57.7269 118.037C57.7435 118.206 57.702 118.376 57.609 118.519C55.5164 121.055 55.5164 138.544 53.9125 153.865C53.9125 154.056 53.8369 154.238 53.7022 154.373C53.5676 154.507 53.385 154.583 53.1946 154.583C53.0042 154.583 52.8216 154.507 52.6869 154.373C52.5523 154.238 52.4767 154.056 52.4767 153.865C50.2924 135.535 49.5744 123.315 50.4909 118.855C50.5186 118.74 50.5148 118.62 50.4798 118.507C50.4449 118.394 50.3801 118.293 50.2924 118.214L38.6834 106.819C33.8566 103.076 30.3586 93.4072 30.3586 86.7168V83.8756C30.3601 79.0297 31.1918 74.2198 32.8179 69.6547L35.6896 63.5448C35.738 63.4475 35.7632 63.3403 35.7632 63.2316C35.7632 63.123 35.738 63.0158 35.6896 62.9185C35.048 61.6965 32.7568 56.9766 34.0399 52.669C34.2996 51.7831 25.3943 56.0142 18.49 59.39C16.0613 60.5799 13.9524 62.3335 12.3395 64.5044C10.7265 66.6754 9.6563 69.2007 9.21819 71.8696C6.68256 87.2819 1.58076 118.534 0.557339 123.529C-0.771576 130.25 21.4381 251.212 21.6367 252.862C23.5919 267.739 36.7283 292.011 36.7283 292.011Z" fill="#262626"/>
</svg>