<svg width="28" height="40" viewBox="0 0 28 40" fill="none" xmlns="http://www.w3.org/2000/svg">
  <rect x="0.5" y="0.5" width="26.027" height="39" rx="13.0135" stroke="white" />
  <path opacity="0.8" fill-rule="evenodd" clip-rule="evenodd"
    d="M6.17904 13.0268L13.2534 20.262C13.4818 20.4956 13.8577 20.4956 14.0861 20.262L21.1605 13.0268L21.1699 13.0173C21.3961 12.7859 21.3961 12.4162 21.1699 12.1848L21.1605 12.1752C20.9321 11.9416 20.5562 11.9416 20.3278 12.1752L13.6698 18.9846L7.01175 12.1752C6.78334 11.9416 6.40746 11.9416 6.17904 12.1752L6.16968 12.1848C5.94344 12.4162 5.94344 12.7859 6.16968 13.0173L6.17904 13.0268ZM6.17904 20.5895L13.2534 27.8247C13.4818 28.0583 13.8577 28.0583 14.0861 27.8247L21.1605 20.5895L21.1699 20.58C21.3961 20.3486 21.3961 19.9789 21.1699 19.7475L21.1605 19.7379C20.9321 19.5043 20.5562 19.5043 20.3278 19.7379L13.6698 26.5473L7.01175 19.7379C6.78334 19.5043 6.40746 19.5043 6.17904 19.7379L6.16968 19.7475C5.94344 19.9789 5.94344 20.3486 6.16968 20.58L6.17904 20.5895Z"
    fill="white" />
</svg>