<svg width="111" height="17" viewBox="0 0 111 17" fill="none" xmlns="http://www.w3.org/2000/svg">
<path d="M13.0316 4.42593L13.7682 0.5H6.62294C4.48672 0.5 2.64516 1.98148 2.27684 4.12963L0.140625 16.5H4.3394L5.44434 10.0556H10.6744L11.3374 6.05556H6.18096L6.47562 4.42593H13.0316Z" fill="#1F1D1D"/>
<path d="M97.6692 0.5H93.4704L92.1445 7.90744L89.0507 1.68516C88.6824 0.870366 87.9457 0.5 87.0618 0.5H85.3675L82.5683 16.4259H86.8408L88.1667 8.87038L91.2605 15.2408C91.6289 15.9815 92.4391 16.4259 93.2494 16.4259H94.87L97.6692 0.5Z" fill="#1F1D1D"/>
<path d="M12.3677 16.4256L15.0914 0.92882H19.3617L16.5664 16.4256H12.3677Z" fill="#1F1D1D"/>
<path d="M76.9708 16.4256L79.6946 0.92882H83.8934L81.1695 16.4256H76.9708Z" fill="#1F1D1D"/>
<path d="M34.3912 0.92882L31.6674 16.4256H35.9397L38.6635 0.92882H34.3912Z" fill="#1F1D1D"/>
<path d="M28.8702 0.5H33.0689L30.2698 16.4259H28.6492C27.8389 16.4259 27.0286 15.9815 26.6603 15.2407L23.5664 8.87037L22.2405 16.4259H17.9681L20.8409 0.5H22.4615C23.3455 0.5 24.0821 0.87037 24.5241 1.68519L27.5442 7.90741L28.8702 0.5Z" fill="#1F1D1D"/>
<path d="M57.8917 6.87037L59.0703 0.5H63.2691L60.4699 16.4259H56.1975L57.2287 10.7963H53.6929L52.7353 16.4259H48.4629L51.2621 0.5H55.5345L54.3559 6.87037H57.8917Z" fill="#1F1D1D"/>
<path d="M109.235 4.42593L109.972 0.5H99.0697L96.2706 16.5H107.099L107.836 12.5H101.206L101.648 10.0556H106.804L107.541 6.05556H102.311L102.606 4.42593H109.235Z" fill="#1F1D1D"/>
<path d="M73.1402 0.5L71.004 12.5H76.234L75.571 16.5H68.7204C67.3945 16.5 66.2895 15.2407 66.5842 13.8333L68.9414 0.5H73.1402Z" fill="#1F1D1D"/>
<path d="M44.1899 4.42593H49.199L49.862 0.5H42.5693C40.2121 0.5 38.6652 2.87037 39.6965 4.94444L43.2323 12.2037C43.306 12.3519 43.2323 12.5 43.085 12.5H38.0023L37.3393 16.5H44.7056C47.0628 16.5 48.6097 13.9815 47.5784 11.9074L44.0426 4.64815C43.9689 4.57407 44.0426 4.42593 44.1899 4.42593Z" fill="#1F1D1D"/>
<path d="M109.53 15.2407V16.4999H109.678V15.4629L109.972 16.4999H110.193L110.488 15.4629V16.4999H110.709V15.2407H110.414L110.12 16.2036L109.825 15.2407H109.53Z" fill="#1F1D1D"/>
<path d="M108.794 15.4629V16.4999H108.941V15.4629H109.383V15.2407H108.352V15.4629H108.794Z" fill="#1F1D1D"/>
</svg>