<svg width="90" height="17" viewBox="0 0 90 17" fill="none" xmlns="http://www.w3.org/2000/svg">
<path d="M17.5141 16.4996H13.6117V8.30469L10.4898 13.3777H7.36797L4.2461 8.30469V16.4996H0.34375V0.5H4.63633L5.02657 0.890235L8.92891 7.52422L12.8313 0.890235L13.2215 0.5H17.5141V16.4996Z" fill="#1F1D1D"/>
<path d="M54.5864 16.4996H51.0742L46.3914 12.207L42.0989 16.4996H38.5867V12.9875L42.8793 8.69493L38.5867 4.01211V0.5H42.0989L54.5864 12.9875V16.4996Z" fill="#1F1D1D"/>
<path d="M54.5864 0.5H50.2938V4.79258H54.5864V0.5Z" fill="#1F1D1D"/>
<path fill-rule="evenodd" clip-rule="evenodd" d="M68.2446 13.3781L69.8055 16.5H72.9274V12.9879L67.4641 0.890616V0.500381H62.7813V0.890616L56.9278 12.9879V16.5H60.4399L62.0008 13.3781H68.2446ZM65.1227 4.79296L67.0739 9.86601H63.1715L65.1227 4.79296Z" fill="#1F1D1D"/>
<path fill-rule="evenodd" clip-rule="evenodd" d="M32.7332 16.5L31.1723 13.3781H24.9285L23.3676 16.5H20.2457V12.9879L25.709 0.890616V0.500381H30.3918V0.890616L36.2453 12.9879V16.5H32.7332ZM30.0016 9.86601L28.0504 4.79296L26.0992 9.86601H30.0016Z" fill="#1F1D1D"/>
<path fill-rule="evenodd" clip-rule="evenodd" d="M81.1223 10.6461L86.1954 16.4996H88.927V13.3777L86.1954 10.2559L86.5856 9.86563C87.1904 9.60306 87.725 9.20197 88.1465 8.69493C88.8915 7.82414 89.306 6.71898 89.3172 5.57305C89.2919 4.82059 89.1045 4.08223 88.7677 3.40885C88.431 2.73527 87.9528 2.14249 87.3661 1.6707C86.3441 0.828498 85.1308 0.5 83.4637 0.5H75.659V16.4996H79.5614V10.6461H81.1223ZM79.5614 7.13399V4.01211H83.854C84.6477 4.01211 85.0247 4.77924 85.0247 5.57305C85.0247 6.36686 84.6477 7.13399 83.854 7.13399H79.5614Z" fill="#1F1D1D"/>
</svg>